<?xml version="1.0" encoding="UTF-8" standalone="no"?>
<!DOCTYPE svg PUBLIC "-//W3C//DTD SVG 1.1//EN"
 "http://www.w3.org/Graphics/SVG/1.1/DTD/svg11.dtd">
<!-- Generated by graphviz version 2.40.1 (20161225.0304)
 -->
<!-- Title: MerkleTree Pages: 1 -->
<svg width="200pt" height="151pt"
 viewBox="0.00 0.00 199.79 151.48" xmlns="http://www.w3.org/2000/svg" xmlns:xlink="http://www.w3.org/1999/xlink">
<g id="graph0" class="graph" transform="scale(1 1) rotate(0) translate(4 147.4802)">
<title>MerkleTree</title>
<polygon fill="#ffffff" stroke="transparent" points="-4,4 -4,-147.4802 195.794,-147.4802 195.794,4 -4,4"/>
<!-- 0 -->
<g id="node1" class="node">
<title>0</title>
<ellipse fill="none" stroke="#ffffff" cx="42.2463" cy="-116.6102" rx="42.4939" ry="18"/>
<text text-anchor="middle" x="42.2463" y="-112.9102" font-family="Times,serif" font-size="14.00" fill="#000000">depth : 1</text>
</g>
<!-- 1 -->
<g id="node2" class="node">
<title>1</title>
<ellipse fill="none" stroke="#ffffff" cx="42.2463" cy="-26.8701" rx="42.4939" ry="18"/>
<text text-anchor="middle" x="42.2463" y="-23.1701" font-family="Times,serif" font-size="14.00" fill="#000000">depth : 0</text>
</g>
<!-- 0&#45;&gt;1 -->
<g id="edge1" class="edge">
<title>0&#45;&gt;1</title>
<path fill="none" stroke="#ffffff" d="M42.2463,-98.4499C42.2463,-82.8804 42.2463,-60.565 42.2463,-45.0033"/>
</g>
<!-- 1637203672.6684613 -->
<g id="node3" class="node">
<title>1637203672.6684613</title>
<ellipse fill="#ffffff" stroke="#000000" cx="147.2463" cy="-116.6102" rx="44.5955" ry="26.7407"/>
<text text-anchor="middle" x="147.2463" y="-120.4102" font-family="Times,serif" font-size="14.00" fill="#000000">71</text>
<text text-anchor="middle" x="147.2463" y="-105.4102" font-family="Times,serif" font-size="14.00" fill="#000000">childs: 1</text>
</g>
<!-- 1637203672.6677754 -->
<g id="node4" class="node">
<title>1637203672.6677754</title>
<ellipse fill="#ffffff" stroke="#000000" cx="147.2463" cy="-26.8701" rx="44.5955" ry="26.7407"/>
<text text-anchor="middle" x="147.2463" y="-30.6701" font-family="Times,serif" font-size="14.00" fill="#000000">71</text>
<text text-anchor="middle" x="147.2463" y="-15.6701" font-family="Times,serif" font-size="14.00" fill="#000000">childs: 0</text>
</g>
<!-- 1637203672.6684613&#45;&gt;1637203672.6677754 -->
<g id="edge2" class="edge">
<title>1637203672.6684613&#45;&gt;1637203672.6677754</title>
<path fill="none" stroke="#000000" d="M147.2463,-89.6852C147.2463,-81.6102 147.2463,-72.607 147.2463,-63.9961"/>
<polygon fill="#000000" stroke="#000000" points="150.7463,-63.776 147.2463,-53.776 143.7463,-63.7761 150.7463,-63.776"/>
</g>
</g>
</svg>
