<?xml version="1.0" encoding="UTF-8" standalone="no"?>
<!DOCTYPE svg PUBLIC "-//W3C//DTD SVG 1.1//EN"
 "http://www.w3.org/Graphics/SVG/1.1/DTD/svg11.dtd">
<!-- Generated by graphviz version 2.40.1 (20161225.0304)
 -->
<!-- Title: MerkleTree Pages: 1 -->
<svg width="1270pt" height="421pt"
 viewBox="0.00 0.00 1269.79 420.70" xmlns="http://www.w3.org/2000/svg" xmlns:xlink="http://www.w3.org/1999/xlink">
<g id="graph0" class="graph" transform="scale(1 1) rotate(0) translate(4 416.7006)">
<title>MerkleTree</title>
<polygon fill="#ffffff" stroke="transparent" points="-4,4 -4,-416.7006 1265.794,-416.7006 1265.794,4 -4,4"/>
<!-- 0 -->
<g id="node1" class="node">
<title>0</title>
<ellipse fill="none" stroke="#ffffff" cx="42.2463" cy="-385.8305" rx="42.4939" ry="18"/>
<text text-anchor="middle" x="42.2463" y="-382.1305" font-family="Times,serif" font-size="14.00" fill="#000000">depth : 4</text>
</g>
<!-- 1 -->
<g id="node2" class="node">
<title>1</title>
<ellipse fill="none" stroke="#ffffff" cx="42.2463" cy="-296.0904" rx="42.4939" ry="18"/>
<text text-anchor="middle" x="42.2463" y="-292.3904" font-family="Times,serif" font-size="14.00" fill="#000000">depth : 3</text>
</g>
<!-- 0&#45;&gt;1 -->
<g id="edge1" class="edge">
<title>0&#45;&gt;1</title>
<path fill="none" stroke="#ffffff" d="M42.2463,-367.6703C42.2463,-352.1008 42.2463,-329.7853 42.2463,-314.2236"/>
</g>
<!-- 2 -->
<g id="node3" class="node">
<title>2</title>
<ellipse fill="none" stroke="#ffffff" cx="42.2463" cy="-206.3503" rx="42.4939" ry="18"/>
<text text-anchor="middle" x="42.2463" y="-202.6503" font-family="Times,serif" font-size="14.00" fill="#000000">depth : 2</text>
</g>
<!-- 1&#45;&gt;2 -->
<g id="edge2" class="edge">
<title>1&#45;&gt;2</title>
<path fill="none" stroke="#ffffff" d="M42.2463,-277.9302C42.2463,-262.3606 42.2463,-240.0452 42.2463,-224.4835"/>
</g>
<!-- 3 -->
<g id="node4" class="node">
<title>3</title>
<ellipse fill="none" stroke="#ffffff" cx="42.2463" cy="-116.6102" rx="42.4939" ry="18"/>
<text text-anchor="middle" x="42.2463" y="-112.9102" font-family="Times,serif" font-size="14.00" fill="#000000">depth : 1</text>
</g>
<!-- 2&#45;&gt;3 -->
<g id="edge3" class="edge">
<title>2&#45;&gt;3</title>
<path fill="none" stroke="#ffffff" d="M42.2463,-188.19C42.2463,-172.6205 42.2463,-150.3051 42.2463,-134.7434"/>
</g>
<!-- 4 -->
<g id="node5" class="node">
<title>4</title>
<ellipse fill="none" stroke="#ffffff" cx="42.2463" cy="-26.8701" rx="42.4939" ry="18"/>
<text text-anchor="middle" x="42.2463" y="-23.1701" font-family="Times,serif" font-size="14.00" fill="#000000">depth : 0</text>
</g>
<!-- 3&#45;&gt;4 -->
<g id="edge4" class="edge">
<title>3&#45;&gt;4</title>
<path fill="none" stroke="#ffffff" d="M42.2463,-98.4499C42.2463,-82.8804 42.2463,-60.565 42.2463,-45.0033"/>
</g>
<!-- 1637203672.7373834 -->
<g id="node6" class="node">
<title>1637203672.7373834</title>
<ellipse fill="#ffffff" stroke="#000000" cx="842.2463" cy="-385.8305" rx="49.4949" ry="26.7407"/>
<text text-anchor="middle" x="842.2463" y="-389.6305" font-family="Times,serif" font-size="14.00" fill="#000000">71 ~ 31</text>
<text text-anchor="middle" x="842.2463" y="-374.6305" font-family="Times,serif" font-size="14.00" fill="#000000">childs: 11</text>
</g>
<!-- 1637203672.7352605 -->
<g id="node7" class="node">
<title>1637203672.7352605</title>
<ellipse fill="#ffffff" stroke="#000000" cx="735.2463" cy="-296.0904" rx="44.5955" ry="26.7407"/>
<text text-anchor="middle" x="735.2463" y="-299.8904" font-family="Times,serif" font-size="14.00" fill="#000000">71 ~ 88</text>
<text text-anchor="middle" x="735.2463" y="-284.8904" font-family="Times,serif" font-size="14.00" fill="#000000">childs: 8</text>
</g>
<!-- 1637203672.7373834&#45;&gt;1637203672.7352605 -->
<g id="edge5" class="edge">
<title>1637203672.7373834&#45;&gt;1637203672.7352605</title>
<path fill="none" stroke="#000000" d="M815.2456,-363.1853C801.3507,-351.5317 784.2654,-337.2024 769.4566,-324.7824"/>
<polygon fill="#000000" stroke="#000000" points="771.4096,-321.8523 761.4985,-318.1079 766.9113,-327.2157 771.4096,-321.8523"/>
</g>
<!-- 1637203672.7372284 -->
<g id="node8" class="node">
<title>1637203672.7372284</title>
<ellipse fill="#ffffff" stroke="#000000" cx="950.2463" cy="-296.0904" rx="45.9239" ry="26.7407"/>
<text text-anchor="middle" x="950.2463" y="-299.8904" font-family="Times,serif" font-size="14.00" fill="#000000">53 46 31</text>
<text text-anchor="middle" x="950.2463" y="-284.8904" font-family="Times,serif" font-size="14.00" fill="#000000">childs: 3</text>
</g>
<!-- 1637203672.7373834&#45;&gt;1637203672.7372284 -->
<g id="edge6" class="edge">
<title>1637203672.7373834&#45;&gt;1637203672.7372284</title>
<path fill="none" stroke="#000000" d="M869.4992,-363.1853C883.524,-351.5317 900.769,-337.2024 915.7162,-324.7824"/>
<polygon fill="#000000" stroke="#000000" points="918.2942,-327.1908 923.7487,-318.1079 913.8205,-321.8069 918.2942,-327.1908"/>
</g>
<!-- 1637203672.7339609 -->
<g id="node9" class="node">
<title>1637203672.7339609</title>
<ellipse fill="#ffffff" stroke="#000000" cx="415.2463" cy="-206.3503" rx="44.5955" ry="26.7407"/>
<text text-anchor="middle" x="415.2463" y="-210.1503" font-family="Times,serif" font-size="14.00" fill="#000000">71 ~ 28</text>
<text text-anchor="middle" x="415.2463" y="-195.1503" font-family="Times,serif" font-size="14.00" fill="#000000">childs: 4</text>
</g>
<!-- 1637203672.7352605&#45;&gt;1637203672.7339609 -->
<g id="edge7" class="edge">
<title>1637203672.7352605&#45;&gt;1637203672.7339609</title>
<path fill="none" stroke="#000000" d="M694.718,-284.7248C636.3702,-268.3618 528.774,-238.1878 465.4635,-220.4331"/>
<polygon fill="#000000" stroke="#000000" points="466.2708,-217.0245 455.6972,-217.6943 464.3806,-223.7645 466.2708,-217.0245"/>
</g>
<!-- 1637203672.735238 -->
<g id="node10" class="node">
<title>1637203672.735238</title>
<ellipse fill="#ffffff" stroke="#000000" cx="735.2463" cy="-206.3503" rx="44.5955" ry="26.7407"/>
<text text-anchor="middle" x="735.2463" y="-210.1503" font-family="Times,serif" font-size="14.00" fill="#000000">67 ~ 88</text>
<text text-anchor="middle" x="735.2463" y="-195.1503" font-family="Times,serif" font-size="14.00" fill="#000000">childs: 4</text>
</g>
<!-- 1637203672.7352605&#45;&gt;1637203672.735238 -->
<g id="edge8" class="edge">
<title>1637203672.7352605&#45;&gt;1637203672.735238</title>
<path fill="none" stroke="#000000" d="M735.2463,-269.1654C735.2463,-261.0905 735.2463,-252.0872 735.2463,-243.4763"/>
<polygon fill="#000000" stroke="#000000" points="738.7463,-243.2562 735.2463,-233.2563 731.7463,-243.2563 738.7463,-243.2562"/>
</g>
<!-- 1637203672.737196 -->
<g id="node11" class="node">
<title>1637203672.737196</title>
<ellipse fill="#ffffff" stroke="#000000" cx="1030.2463" cy="-206.3503" rx="45.9239" ry="26.7407"/>
<text text-anchor="middle" x="1030.2463" y="-210.1503" font-family="Times,serif" font-size="14.00" fill="#000000">53 46 31</text>
<text text-anchor="middle" x="1030.2463" y="-195.1503" font-family="Times,serif" font-size="14.00" fill="#000000">childs: 3</text>
</g>
<!-- 1637203672.7372284&#45;&gt;1637203672.737196 -->
<g id="edge9" class="edge">
<title>1637203672.7372284&#45;&gt;1637203672.737196</title>
<path fill="none" stroke="#000000" d="M971.6848,-272.0417C981.0108,-261.5802 992.0666,-249.1784 1002.0461,-237.9839"/>
<polygon fill="#000000" stroke="#000000" points="1004.7067,-240.259 1008.7485,-230.4654 999.4815,-235.6009 1004.7067,-240.259"/>
</g>
<!-- 1637203672.6684613 -->
<g id="node12" class="node">
<title>1637203672.6684613</title>
<ellipse fill="#ffffff" stroke="#000000" cx="254.2463" cy="-116.6102" rx="44.5955" ry="26.7407"/>
<text text-anchor="middle" x="254.2463" y="-120.4102" font-family="Times,serif" font-size="14.00" fill="#000000">71 8</text>
<text text-anchor="middle" x="254.2463" y="-105.4102" font-family="Times,serif" font-size="14.00" fill="#000000">childs: 2</text>
</g>
<!-- 1637203672.7339609&#45;&gt;1637203672.6684613 -->
<g id="edge10" class="edge">
<title>1637203672.7339609&#45;&gt;1637203672.6684613</title>
<path fill="none" stroke="#000000" d="M382.277,-187.9735C357.3155,-174.0602 322.8547,-154.852 295.9727,-139.8682"/>
<polygon fill="#000000" stroke="#000000" points="297.6102,-136.774 287.1714,-134.9624 294.2021,-142.8883 297.6102,-136.774"/>
</g>
<!-- 1637203672.733271 -->
<g id="node13" class="node">
<title>1637203672.733271</title>
<ellipse fill="#ffffff" stroke="#000000" cx="415.2463" cy="-116.6102" rx="44.5955" ry="26.7407"/>
<text text-anchor="middle" x="415.2463" y="-120.4102" font-family="Times,serif" font-size="14.00" fill="#000000">71 28</text>
<text text-anchor="middle" x="415.2463" y="-105.4102" font-family="Times,serif" font-size="14.00" fill="#000000">childs: 2</text>
</g>
<!-- 1637203672.7339609&#45;&gt;1637203672.733271 -->
<g id="edge11" class="edge">
<title>1637203672.7339609&#45;&gt;1637203672.733271</title>
<path fill="none" stroke="#000000" d="M415.2463,-179.4253C415.2463,-171.3504 415.2463,-162.3471 415.2463,-153.7362"/>
<polygon fill="#000000" stroke="#000000" points="418.7463,-153.5161 415.2463,-143.5162 411.7463,-153.5162 418.7463,-153.5161"/>
</g>
<!-- 1637203672.7352147 -->
<g id="node14" class="node">
<title>1637203672.7352147</title>
<ellipse fill="#ffffff" stroke="#000000" cx="682.2463" cy="-116.6102" rx="44.5955" ry="26.7407"/>
<text text-anchor="middle" x="682.2463" y="-120.4102" font-family="Times,serif" font-size="14.00" fill="#000000">67 34</text>
<text text-anchor="middle" x="682.2463" y="-105.4102" font-family="Times,serif" font-size="14.00" fill="#000000">childs: 2</text>
</g>
<!-- 1637203672.735238&#45;&gt;1637203672.7352147 -->
<g id="edge12" class="edge">
<title>1637203672.735238&#45;&gt;1637203672.7352147</title>
<path fill="none" stroke="#000000" d="M720.2003,-180.8744C714.7175,-171.5908 708.4246,-160.9356 702.5599,-151.0054"/>
<polygon fill="#000000" stroke="#000000" points="705.4288,-148.9803 697.3298,-142.1497 699.4014,-152.5401 705.4288,-148.9803"/>
</g>
<!-- 1637203672.736203 -->
<g id="node15" class="node">
<title>1637203672.736203</title>
<ellipse fill="#ffffff" stroke="#000000" cx="789.2463" cy="-116.6102" rx="44.5955" ry="26.7407"/>
<text text-anchor="middle" x="789.2463" y="-120.4102" font-family="Times,serif" font-size="14.00" fill="#000000">79 88</text>
<text text-anchor="middle" x="789.2463" y="-105.4102" font-family="Times,serif" font-size="14.00" fill="#000000">childs: 2</text>
</g>
<!-- 1637203672.735238&#45;&gt;1637203672.736203 -->
<g id="edge13" class="edge">
<title>1637203672.735238&#45;&gt;1637203672.736203</title>
<path fill="none" stroke="#000000" d="M750.576,-180.8744C756.1623,-171.5908 762.574,-160.9356 768.5494,-151.0054"/>
<polygon fill="#000000" stroke="#000000" points="771.7211,-152.5227 773.8781,-142.1497 765.7233,-148.9135 771.7211,-152.5227"/>
</g>
<!-- 1637203672.7371638 -->
<g id="node16" class="node">
<title>1637203672.7371638</title>
<ellipse fill="#ffffff" stroke="#000000" cx="1030.2463" cy="-116.6102" rx="44.5955" ry="26.7407"/>
<text text-anchor="middle" x="1030.2463" y="-120.4102" font-family="Times,serif" font-size="14.00" fill="#000000">53 46</text>
<text text-anchor="middle" x="1030.2463" y="-105.4102" font-family="Times,serif" font-size="14.00" fill="#000000">childs: 2</text>
</g>
<!-- 1637203672.737196&#45;&gt;1637203672.7371638 -->
<g id="edge14" class="edge">
<title>1637203672.737196&#45;&gt;1637203672.7371638</title>
<path fill="none" stroke="#000000" d="M1030.2463,-179.4253C1030.2463,-171.3504 1030.2463,-162.3471 1030.2463,-153.7362"/>
<polygon fill="#000000" stroke="#000000" points="1033.7463,-153.5161 1030.2463,-143.5162 1026.7463,-153.5162 1033.7463,-153.5161"/>
</g>
<!-- 1637203672.7385921 -->
<g id="node17" class="node">
<title>1637203672.7385921</title>
<ellipse fill="#ffffff" stroke="#000000" cx="1190.2463" cy="-116.6102" rx="44.5955" ry="26.7407"/>
<text text-anchor="middle" x="1190.2463" y="-120.4102" font-family="Times,serif" font-size="14.00" fill="#000000">31</text>
<text text-anchor="middle" x="1190.2463" y="-105.4102" font-family="Times,serif" font-size="14.00" fill="#000000">childs: 1</text>
</g>
<!-- 1637203672.737196&#45;&gt;1637203672.7385921 -->
<g id="edge15" class="edge">
<title>1637203672.737196&#45;&gt;1637203672.7385921</title>
<path fill="none" stroke="#000000" d="M1063.7875,-187.5378C1088.4606,-173.6993 1122.1562,-154.8002 1148.5612,-139.9903"/>
<polygon fill="#000000" stroke="#000000" points="1150.5605,-142.8819 1157.5701,-134.9374 1147.1362,-136.7767 1150.5605,-142.8819"/>
</g>
<!-- 1637203672.6677754 -->
<g id="node18" class="node">
<title>1637203672.6677754</title>
<ellipse fill="#ffffff" stroke="#000000" cx="147.2463" cy="-26.8701" rx="44.5955" ry="26.7407"/>
<text text-anchor="middle" x="147.2463" y="-30.6701" font-family="Times,serif" font-size="14.00" fill="#000000">71</text>
<text text-anchor="middle" x="147.2463" y="-15.6701" font-family="Times,serif" font-size="14.00" fill="#000000">childs: 0</text>
</g>
<!-- 1637203672.6684613&#45;&gt;1637203672.6677754 -->
<g id="edge16" class="edge">
<title>1637203672.6684613&#45;&gt;1637203672.6677754</title>
<path fill="none" stroke="#000000" d="M228.0711,-94.6573C213.9513,-82.8151 196.3604,-68.0618 181.1982,-55.3453"/>
<polygon fill="#000000" stroke="#000000" points="183.4331,-52.6517 173.522,-48.9073 178.9349,-58.0151 183.4331,-52.6517"/>
</g>
<!-- 1637203672.7321477 -->
<g id="node19" class="node">
<title>1637203672.7321477</title>
<ellipse fill="#ffffff" stroke="#000000" cx="254.2463" cy="-26.8701" rx="44.5955" ry="26.7407"/>
<text text-anchor="middle" x="254.2463" y="-30.6701" font-family="Times,serif" font-size="14.00" fill="#000000">8</text>
<text text-anchor="middle" x="254.2463" y="-15.6701" font-family="Times,serif" font-size="14.00" fill="#000000">childs: 0</text>
</g>
<!-- 1637203672.6684613&#45;&gt;1637203672.7321477 -->
<g id="edge17" class="edge">
<title>1637203672.6684613&#45;&gt;1637203672.7321477</title>
<path fill="none" stroke="#000000" d="M254.2463,-89.6852C254.2463,-81.6102 254.2463,-72.607 254.2463,-63.9961"/>
<polygon fill="#000000" stroke="#000000" points="257.7463,-63.776 254.2463,-53.776 250.7463,-63.7761 257.7463,-63.776"/>
</g>
<!-- 1637203672.7329328 -->
<g id="node20" class="node">
<title>1637203672.7329328</title>
<ellipse fill="#ffffff" stroke="#000000" cx="361.2463" cy="-26.8701" rx="44.5955" ry="26.7407"/>
<text text-anchor="middle" x="361.2463" y="-30.6701" font-family="Times,serif" font-size="14.00" fill="#000000">71</text>
<text text-anchor="middle" x="361.2463" y="-15.6701" font-family="Times,serif" font-size="14.00" fill="#000000">childs: 0</text>
</g>
<!-- 1637203672.733271&#45;&gt;1637203672.7329328 -->
<g id="edge18" class="edge">
<title>1637203672.733271&#45;&gt;1637203672.7329328</title>
<path fill="none" stroke="#000000" d="M399.9165,-91.1343C394.3302,-81.8507 387.9185,-71.1955 381.9431,-61.2653"/>
<polygon fill="#000000" stroke="#000000" points="384.7692,-59.1734 376.6144,-52.4096 378.7714,-62.7826 384.7692,-59.1734"/>
</g>
<!-- 1637203672.7341585 -->
<g id="node21" class="node">
<title>1637203672.7341585</title>
<ellipse fill="#ffffff" stroke="#000000" cx="468.2463" cy="-26.8701" rx="44.5955" ry="26.7407"/>
<text text-anchor="middle" x="468.2463" y="-30.6701" font-family="Times,serif" font-size="14.00" fill="#000000">28</text>
<text text-anchor="middle" x="468.2463" y="-15.6701" font-family="Times,serif" font-size="14.00" fill="#000000">childs: 0</text>
</g>
<!-- 1637203672.733271&#45;&gt;1637203672.7341585 -->
<g id="edge19" class="edge">
<title>1637203672.733271&#45;&gt;1637203672.7341585</title>
<path fill="none" stroke="#000000" d="M430.2922,-91.1343C435.775,-81.8507 442.0679,-71.1955 447.9326,-61.2653"/>
<polygon fill="#000000" stroke="#000000" points="451.0911,-62.8 453.1627,-52.4096 445.0637,-59.2402 451.0911,-62.8"/>
</g>
<!-- 1637203672.7349088 -->
<g id="node22" class="node">
<title>1637203672.7349088</title>
<ellipse fill="#ffffff" stroke="#000000" cx="575.2463" cy="-26.8701" rx="44.5955" ry="26.7407"/>
<text text-anchor="middle" x="575.2463" y="-30.6701" font-family="Times,serif" font-size="14.00" fill="#000000">67</text>
<text text-anchor="middle" x="575.2463" y="-15.6701" font-family="Times,serif" font-size="14.00" fill="#000000">childs: 0</text>
</g>
<!-- 1637203672.7352147&#45;&gt;1637203672.7349088 -->
<g id="edge20" class="edge">
<title>1637203672.7352147&#45;&gt;1637203672.7349088</title>
<path fill="none" stroke="#000000" d="M656.0711,-94.6573C641.9513,-82.8151 624.3604,-68.0618 609.1982,-55.3453"/>
<polygon fill="#000000" stroke="#000000" points="611.4331,-52.6517 601.522,-48.9073 606.9349,-58.0151 611.4331,-52.6517"/>
</g>
<!-- 1637203672.7354085 -->
<g id="node23" class="node">
<title>1637203672.7354085</title>
<ellipse fill="#ffffff" stroke="#000000" cx="682.2463" cy="-26.8701" rx="44.5955" ry="26.7407"/>
<text text-anchor="middle" x="682.2463" y="-30.6701" font-family="Times,serif" font-size="14.00" fill="#000000">34</text>
<text text-anchor="middle" x="682.2463" y="-15.6701" font-family="Times,serif" font-size="14.00" fill="#000000">childs: 0</text>
</g>
<!-- 1637203672.7352147&#45;&gt;1637203672.7354085 -->
<g id="edge21" class="edge">
<title>1637203672.7352147&#45;&gt;1637203672.7354085</title>
<path fill="none" stroke="#000000" d="M682.2463,-89.6852C682.2463,-81.6102 682.2463,-72.607 682.2463,-63.9961"/>
<polygon fill="#000000" stroke="#000000" points="685.7463,-63.776 682.2463,-53.776 678.7463,-63.7761 685.7463,-63.776"/>
</g>
<!-- 1637203672.7358387 -->
<g id="node24" class="node">
<title>1637203672.7358387</title>
<ellipse fill="#ffffff" stroke="#000000" cx="789.2463" cy="-26.8701" rx="44.5955" ry="26.7407"/>
<text text-anchor="middle" x="789.2463" y="-30.6701" font-family="Times,serif" font-size="14.00" fill="#000000">79</text>
<text text-anchor="middle" x="789.2463" y="-15.6701" font-family="Times,serif" font-size="14.00" fill="#000000">childs: 0</text>
</g>
<!-- 1637203672.736203&#45;&gt;1637203672.7358387 -->
<g id="edge22" class="edge">
<title>1637203672.736203&#45;&gt;1637203672.7358387</title>
<path fill="none" stroke="#000000" d="M789.2463,-89.6852C789.2463,-81.6102 789.2463,-72.607 789.2463,-63.9961"/>
<polygon fill="#000000" stroke="#000000" points="792.7463,-63.776 789.2463,-53.776 785.7463,-63.7761 792.7463,-63.776"/>
</g>
<!-- 1637203672.7365959 -->
<g id="node25" class="node">
<title>1637203672.7365959</title>
<ellipse fill="#ffffff" stroke="#000000" cx="896.2463" cy="-26.8701" rx="44.5955" ry="26.7407"/>
<text text-anchor="middle" x="896.2463" y="-30.6701" font-family="Times,serif" font-size="14.00" fill="#000000">88</text>
<text text-anchor="middle" x="896.2463" y="-15.6701" font-family="Times,serif" font-size="14.00" fill="#000000">childs: 0</text>
</g>
<!-- 1637203672.736203&#45;&gt;1637203672.7365959 -->
<g id="edge23" class="edge">
<title>1637203672.736203&#45;&gt;1637203672.7365959</title>
<path fill="none" stroke="#000000" d="M815.4214,-94.6573C829.5412,-82.8151 847.1321,-68.0618 862.2943,-55.3453"/>
<polygon fill="#000000" stroke="#000000" points="864.5576,-58.0151 869.9705,-48.9073 860.0594,-52.6517 864.5576,-58.0151"/>
</g>
<!-- 1637203672.7370207 -->
<g id="node26" class="node">
<title>1637203672.7370207</title>
<ellipse fill="#ffffff" stroke="#000000" cx="1003.2463" cy="-26.8701" rx="44.5955" ry="26.7407"/>
<text text-anchor="middle" x="1003.2463" y="-30.6701" font-family="Times,serif" font-size="14.00" fill="#000000">53</text>
<text text-anchor="middle" x="1003.2463" y="-15.6701" font-family="Times,serif" font-size="14.00" fill="#000000">childs: 0</text>
</g>
<!-- 1637203672.7371638&#45;&gt;1637203672.7370207 -->
<g id="edge24" class="edge">
<title>1637203672.7371638&#45;&gt;1637203672.7370207</title>
<path fill="none" stroke="#000000" d="M1022.2914,-90.1706C1019.7325,-81.6657 1016.852,-72.0915 1014.1206,-63.0132"/>
<polygon fill="#000000" stroke="#000000" points="1017.4703,-61.9984 1011.2376,-53.4308 1010.7671,-64.0152 1017.4703,-61.9984"/>
</g>
<!-- 1637203672.7377987 -->
<g id="node27" class="node">
<title>1637203672.7377987</title>
<ellipse fill="#ffffff" stroke="#000000" cx="1110.2463" cy="-26.8701" rx="44.5955" ry="26.7407"/>
<text text-anchor="middle" x="1110.2463" y="-30.6701" font-family="Times,serif" font-size="14.00" fill="#000000">46</text>
<text text-anchor="middle" x="1110.2463" y="-15.6701" font-family="Times,serif" font-size="14.00" fill="#000000">childs: 0</text>
</g>
<!-- 1637203672.7371638&#45;&gt;1637203672.7377987 -->
<g id="edge25" class="edge">
<title>1637203672.7371638&#45;&gt;1637203672.7377987</title>
<path fill="none" stroke="#000000" d="M1051.6848,-92.5615C1061.086,-82.0156 1072.245,-69.498 1082.2873,-58.233"/>
<polygon fill="#000000" stroke="#000000" points="1084.9841,-60.4676 1089.0259,-50.674 1079.7589,-55.8095 1084.9841,-60.4676"/>
</g>
<!-- 1637203672.7383583 -->
<g id="node28" class="node">
<title>1637203672.7383583</title>
<ellipse fill="#ffffff" stroke="#000000" cx="1217.2463" cy="-26.8701" rx="44.5955" ry="26.7407"/>
<text text-anchor="middle" x="1217.2463" y="-30.6701" font-family="Times,serif" font-size="14.00" fill="#000000">31</text>
<text text-anchor="middle" x="1217.2463" y="-15.6701" font-family="Times,serif" font-size="14.00" fill="#000000">childs: 0</text>
</g>
<!-- 1637203672.7385921&#45;&gt;1637203672.7383583 -->
<g id="edge26" class="edge">
<title>1637203672.7385921&#45;&gt;1637203672.7383583</title>
<path fill="none" stroke="#000000" d="M1198.2011,-90.1706C1200.76,-81.6657 1203.6405,-72.0915 1206.3719,-63.0132"/>
<polygon fill="#000000" stroke="#000000" points="1209.7254,-64.0152 1209.255,-53.4308 1203.0222,-61.9984 1209.7254,-64.0152"/>
</g>
</g>
</svg>
