<?xml version="1.0" encoding="UTF-8" standalone="no"?>
<!DOCTYPE svg PUBLIC "-//W3C//DTD SVG 1.1//EN"
 "http://www.w3.org/Graphics/SVG/1.1/DTD/svg11.dtd">
<!-- Generated by graphviz version 2.40.1 (20161225.0304)
 -->
<!-- Title: MerkleTree Pages: 1 -->
<svg width="628pt" height="331pt"
 viewBox="0.00 0.00 627.79 330.96" xmlns="http://www.w3.org/2000/svg" xmlns:xlink="http://www.w3.org/1999/xlink">
<g id="graph0" class="graph" transform="scale(1 1) rotate(0) translate(4 326.9605)">
<title>MerkleTree</title>
<polygon fill="#ffffff" stroke="transparent" points="-4,4 -4,-326.9605 623.794,-326.9605 623.794,4 -4,4"/>
<!-- 0 -->
<g id="node1" class="node">
<title>0</title>
<ellipse fill="none" stroke="#ffffff" cx="42.2463" cy="-296.0904" rx="42.4939" ry="18"/>
<text text-anchor="middle" x="42.2463" y="-292.3904" font-family="Times,serif" font-size="14.00" fill="#000000">depth : 3</text>
</g>
<!-- 1 -->
<g id="node2" class="node">
<title>1</title>
<ellipse fill="none" stroke="#ffffff" cx="42.2463" cy="-206.3503" rx="42.4939" ry="18"/>
<text text-anchor="middle" x="42.2463" y="-202.6503" font-family="Times,serif" font-size="14.00" fill="#000000">depth : 2</text>
</g>
<!-- 0&#45;&gt;1 -->
<g id="edge1" class="edge">
<title>0&#45;&gt;1</title>
<path fill="none" stroke="#ffffff" d="M42.2463,-277.9302C42.2463,-262.3606 42.2463,-240.0452 42.2463,-224.4835"/>
</g>
<!-- 2 -->
<g id="node3" class="node">
<title>2</title>
<ellipse fill="none" stroke="#ffffff" cx="42.2463" cy="-116.6102" rx="42.4939" ry="18"/>
<text text-anchor="middle" x="42.2463" y="-112.9102" font-family="Times,serif" font-size="14.00" fill="#000000">depth : 1</text>
</g>
<!-- 1&#45;&gt;2 -->
<g id="edge2" class="edge">
<title>1&#45;&gt;2</title>
<path fill="none" stroke="#ffffff" d="M42.2463,-188.19C42.2463,-172.6205 42.2463,-150.3051 42.2463,-134.7434"/>
</g>
<!-- 3 -->
<g id="node4" class="node">
<title>3</title>
<ellipse fill="none" stroke="#ffffff" cx="42.2463" cy="-26.8701" rx="42.4939" ry="18"/>
<text text-anchor="middle" x="42.2463" y="-23.1701" font-family="Times,serif" font-size="14.00" fill="#000000">depth : 0</text>
</g>
<!-- 2&#45;&gt;3 -->
<g id="edge3" class="edge">
<title>2&#45;&gt;3</title>
<path fill="none" stroke="#ffffff" d="M42.2463,-98.4499C42.2463,-82.8804 42.2463,-60.565 42.2463,-45.0033"/>
</g>
<!-- 1637203672.7373834 -->
<g id="node5" class="node">
<title>1637203672.7373834</title>
<ellipse fill="#ffffff" stroke="#000000" cx="360.2463" cy="-296.0904" rx="44.5955" ry="26.7407"/>
<text text-anchor="middle" x="360.2463" y="-299.8904" font-family="Times,serif" font-size="14.00" fill="#000000">71 ~ 31</text>
<text text-anchor="middle" x="360.2463" y="-284.8904" font-family="Times,serif" font-size="14.00" fill="#000000">childs: 5</text>
</g>
<!-- 1637203672.7339609 -->
<g id="node6" class="node">
<title>1637203672.7339609</title>
<ellipse fill="#ffffff" stroke="#000000" cx="280.2463" cy="-206.3503" rx="44.5955" ry="26.7407"/>
<text text-anchor="middle" x="280.2463" y="-210.1503" font-family="Times,serif" font-size="14.00" fill="#000000">71 8</text>
<text text-anchor="middle" x="280.2463" y="-195.1503" font-family="Times,serif" font-size="14.00" fill="#000000">childs: 2</text>
</g>
<!-- 1637203672.7373834&#45;&gt;1637203672.7339609 -->
<g id="edge4" class="edge">
<title>1637203672.7373834&#45;&gt;1637203672.7339609</title>
<path fill="none" stroke="#000000" d="M338.8077,-272.0417C329.4065,-261.4958 318.2475,-248.9782 308.2052,-237.7133"/>
<polygon fill="#000000" stroke="#000000" points="310.7336,-235.2897 301.4666,-230.1542 305.5084,-239.9478 310.7336,-235.2897"/>
</g>
<!-- 1637203672.737196 -->
<g id="node7" class="node">
<title>1637203672.737196</title>
<ellipse fill="#ffffff" stroke="#000000" cx="441.2463" cy="-206.3503" rx="45.9239" ry="26.7407"/>
<text text-anchor="middle" x="441.2463" y="-210.1503" font-family="Times,serif" font-size="14.00" fill="#000000">53 46 31</text>
<text text-anchor="middle" x="441.2463" y="-195.1503" font-family="Times,serif" font-size="14.00" fill="#000000">childs: 3</text>
</g>
<!-- 1637203672.7373834&#45;&gt;1637203672.737196 -->
<g id="edge5" class="edge">
<title>1637203672.7373834&#45;&gt;1637203672.737196</title>
<path fill="none" stroke="#000000" d="M381.9528,-272.0417C391.4715,-261.4958 402.77,-248.9782 412.9378,-237.7133"/>
<polygon fill="#000000" stroke="#000000" points="415.6585,-239.9227 419.7607,-230.1542 410.4622,-235.2324 415.6585,-239.9227"/>
</g>
<!-- 1637203672.6684613 -->
<g id="node8" class="node">
<title>1637203672.6684613</title>
<ellipse fill="#ffffff" stroke="#000000" cx="254.2463" cy="-116.6102" rx="44.5955" ry="26.7407"/>
<text text-anchor="middle" x="254.2463" y="-120.4102" font-family="Times,serif" font-size="14.00" fill="#000000">71 8</text>
<text text-anchor="middle" x="254.2463" y="-105.4102" font-family="Times,serif" font-size="14.00" fill="#000000">childs: 2</text>
</g>
<!-- 1637203672.7339609&#45;&gt;1637203672.6684613 -->
<g id="edge6" class="edge">
<title>1637203672.7339609&#45;&gt;1637203672.6684613</title>
<path fill="none" stroke="#000000" d="M272.4454,-179.4253C270.0327,-171.0979 267.334,-161.7831 264.7689,-152.9296"/>
<polygon fill="#000000" stroke="#000000" points="268.0966,-151.8379 261.952,-143.2069 261.3731,-153.7859 268.0966,-151.8379"/>
</g>
<!-- 1637203672.7371638 -->
<g id="node9" class="node">
<title>1637203672.7371638</title>
<ellipse fill="#ffffff" stroke="#000000" cx="441.2463" cy="-116.6102" rx="44.5955" ry="26.7407"/>
<text text-anchor="middle" x="441.2463" y="-120.4102" font-family="Times,serif" font-size="14.00" fill="#000000">53 46</text>
<text text-anchor="middle" x="441.2463" y="-105.4102" font-family="Times,serif" font-size="14.00" fill="#000000">childs: 2</text>
</g>
<!-- 1637203672.737196&#45;&gt;1637203672.7371638 -->
<g id="edge7" class="edge">
<title>1637203672.737196&#45;&gt;1637203672.7371638</title>
<path fill="none" stroke="#000000" d="M441.2463,-179.4253C441.2463,-171.3504 441.2463,-162.3471 441.2463,-153.7362"/>
<polygon fill="#000000" stroke="#000000" points="444.7463,-153.5161 441.2463,-143.5162 437.7463,-153.5162 444.7463,-153.5161"/>
</g>
<!-- 1637203672.7385921 -->
<g id="node10" class="node">
<title>1637203672.7385921</title>
<ellipse fill="#ffffff" stroke="#000000" cx="561.2463" cy="-116.6102" rx="44.5955" ry="26.7407"/>
<text text-anchor="middle" x="561.2463" y="-120.4102" font-family="Times,serif" font-size="14.00" fill="#000000">31</text>
<text text-anchor="middle" x="561.2463" y="-105.4102" font-family="Times,serif" font-size="14.00" fill="#000000">childs: 1</text>
</g>
<!-- 1637203672.737196&#45;&gt;1637203672.7385921 -->
<g id="edge8" class="edge">
<title>1637203672.737196&#45;&gt;1637203672.7385921</title>
<path fill="none" stroke="#000000" d="M469.6846,-185.0831C486.1235,-172.7895 506.9813,-157.1913 524.636,-143.9886"/>
<polygon fill="#000000" stroke="#000000" points="527.0998,-146.5165 533.0121,-137.7247 522.9076,-140.9107 527.0998,-146.5165"/>
</g>
<!-- 1637203672.6677754 -->
<g id="node11" class="node">
<title>1637203672.6677754</title>
<ellipse fill="#ffffff" stroke="#000000" cx="147.2463" cy="-26.8701" rx="44.5955" ry="26.7407"/>
<text text-anchor="middle" x="147.2463" y="-30.6701" font-family="Times,serif" font-size="14.00" fill="#000000">71</text>
<text text-anchor="middle" x="147.2463" y="-15.6701" font-family="Times,serif" font-size="14.00" fill="#000000">childs: 0</text>
</g>
<!-- 1637203672.6684613&#45;&gt;1637203672.6677754 -->
<g id="edge9" class="edge">
<title>1637203672.6684613&#45;&gt;1637203672.6677754</title>
<path fill="none" stroke="#000000" d="M228.0711,-94.6573C213.9513,-82.8151 196.3604,-68.0618 181.1982,-55.3453"/>
<polygon fill="#000000" stroke="#000000" points="183.4331,-52.6517 173.522,-48.9073 178.9349,-58.0151 183.4331,-52.6517"/>
</g>
<!-- 1637203672.7321477 -->
<g id="node12" class="node">
<title>1637203672.7321477</title>
<ellipse fill="#ffffff" stroke="#000000" cx="254.2463" cy="-26.8701" rx="44.5955" ry="26.7407"/>
<text text-anchor="middle" x="254.2463" y="-30.6701" font-family="Times,serif" font-size="14.00" fill="#000000">8</text>
<text text-anchor="middle" x="254.2463" y="-15.6701" font-family="Times,serif" font-size="14.00" fill="#000000">childs: 0</text>
</g>
<!-- 1637203672.6684613&#45;&gt;1637203672.7321477 -->
<g id="edge10" class="edge">
<title>1637203672.6684613&#45;&gt;1637203672.7321477</title>
<path fill="none" stroke="#000000" d="M254.2463,-89.6852C254.2463,-81.6102 254.2463,-72.607 254.2463,-63.9961"/>
<polygon fill="#000000" stroke="#000000" points="257.7463,-63.776 254.2463,-53.776 250.7463,-63.7761 257.7463,-63.776"/>
</g>
<!-- 1637203672.7370207 -->
<g id="node13" class="node">
<title>1637203672.7370207</title>
<ellipse fill="#ffffff" stroke="#000000" cx="361.2463" cy="-26.8701" rx="44.5955" ry="26.7407"/>
<text text-anchor="middle" x="361.2463" y="-30.6701" font-family="Times,serif" font-size="14.00" fill="#000000">53</text>
<text text-anchor="middle" x="361.2463" y="-15.6701" font-family="Times,serif" font-size="14.00" fill="#000000">childs: 0</text>
</g>
<!-- 1637203672.7371638&#45;&gt;1637203672.7370207 -->
<g id="edge11" class="edge">
<title>1637203672.7371638&#45;&gt;1637203672.7370207</title>
<path fill="none" stroke="#000000" d="M419.8077,-92.5615C410.4065,-82.0156 399.2475,-69.498 389.2052,-58.233"/>
<polygon fill="#000000" stroke="#000000" points="391.7336,-55.8095 382.4666,-50.674 386.5084,-60.4676 391.7336,-55.8095"/>
</g>
<!-- 1637203672.7377987 -->
<g id="node14" class="node">
<title>1637203672.7377987</title>
<ellipse fill="#ffffff" stroke="#000000" cx="468.2463" cy="-26.8701" rx="44.5955" ry="26.7407"/>
<text text-anchor="middle" x="468.2463" y="-30.6701" font-family="Times,serif" font-size="14.00" fill="#000000">46</text>
<text text-anchor="middle" x="468.2463" y="-15.6701" font-family="Times,serif" font-size="14.00" fill="#000000">childs: 0</text>
</g>
<!-- 1637203672.7371638&#45;&gt;1637203672.7377987 -->
<g id="edge12" class="edge">
<title>1637203672.7371638&#45;&gt;1637203672.7377987</title>
<path fill="none" stroke="#000000" d="M449.2011,-90.1706C451.76,-81.6657 454.6405,-72.0915 457.3719,-63.0132"/>
<polygon fill="#000000" stroke="#000000" points="460.7254,-64.0152 460.255,-53.4308 454.0222,-61.9984 460.7254,-64.0152"/>
</g>
<!-- 1637203672.7383583 -->
<g id="node15" class="node">
<title>1637203672.7383583</title>
<ellipse fill="#ffffff" stroke="#000000" cx="575.2463" cy="-26.8701" rx="44.5955" ry="26.7407"/>
<text text-anchor="middle" x="575.2463" y="-30.6701" font-family="Times,serif" font-size="14.00" fill="#000000">31</text>
<text text-anchor="middle" x="575.2463" y="-15.6701" font-family="Times,serif" font-size="14.00" fill="#000000">childs: 0</text>
</g>
<!-- 1637203672.7385921&#45;&gt;1637203672.7383583 -->
<g id="edge13" class="edge">
<title>1637203672.7385921&#45;&gt;1637203672.7383583</title>
<path fill="none" stroke="#000000" d="M565.4467,-89.6852C566.7203,-81.5215 568.1419,-72.409 569.4986,-63.7123"/>
<polygon fill="#000000" stroke="#000000" points="572.9654,-64.1961 571.0488,-53.776 566.0491,-63.117 572.9654,-64.1961"/>
</g>
</g>
</svg>
