<?xml version="1.0" encoding="UTF-8" standalone="no"?>
<!DOCTYPE svg PUBLIC "-//W3C//DTD SVG 1.1//EN"
 "http://www.w3.org/Graphics/SVG/1.1/DTD/svg11.dtd">
<!-- Generated by graphviz version 2.40.1 (20161225.0304)
 -->
<!-- Title: MerkleTree Pages: 1 -->
<svg width="1163pt" height="421pt"
 viewBox="0.00 0.00 1162.79 420.70" xmlns="http://www.w3.org/2000/svg" xmlns:xlink="http://www.w3.org/1999/xlink">
<g id="graph0" class="graph" transform="scale(1 1) rotate(0) translate(4 416.7006)">
<title>MerkleTree</title>
<polygon fill="#ffffff" stroke="transparent" points="-4,4 -4,-416.7006 1158.794,-416.7006 1158.794,4 -4,4"/>
<!-- 0 -->
<g id="node1" class="node">
<title>0</title>
<ellipse fill="none" stroke="#ffffff" cx="42.2463" cy="-385.8305" rx="42.4939" ry="18"/>
<text text-anchor="middle" x="42.2463" y="-382.1305" font-family="Times,serif" font-size="14.00" fill="#000000">depth : 4</text>
</g>
<!-- 1 -->
<g id="node2" class="node">
<title>1</title>
<ellipse fill="none" stroke="#ffffff" cx="42.2463" cy="-296.0904" rx="42.4939" ry="18"/>
<text text-anchor="middle" x="42.2463" y="-292.3904" font-family="Times,serif" font-size="14.00" fill="#000000">depth : 3</text>
</g>
<!-- 0&#45;&gt;1 -->
<g id="edge1" class="edge">
<title>0&#45;&gt;1</title>
<path fill="none" stroke="#ffffff" d="M42.2463,-367.6703C42.2463,-352.1008 42.2463,-329.7853 42.2463,-314.2236"/>
</g>
<!-- 2 -->
<g id="node3" class="node">
<title>2</title>
<ellipse fill="none" stroke="#ffffff" cx="42.2463" cy="-206.3503" rx="42.4939" ry="18"/>
<text text-anchor="middle" x="42.2463" y="-202.6503" font-family="Times,serif" font-size="14.00" fill="#000000">depth : 2</text>
</g>
<!-- 1&#45;&gt;2 -->
<g id="edge2" class="edge">
<title>1&#45;&gt;2</title>
<path fill="none" stroke="#ffffff" d="M42.2463,-277.9302C42.2463,-262.3606 42.2463,-240.0452 42.2463,-224.4835"/>
</g>
<!-- 3 -->
<g id="node4" class="node">
<title>3</title>
<ellipse fill="none" stroke="#ffffff" cx="42.2463" cy="-116.6102" rx="42.4939" ry="18"/>
<text text-anchor="middle" x="42.2463" y="-112.9102" font-family="Times,serif" font-size="14.00" fill="#000000">depth : 1</text>
</g>
<!-- 2&#45;&gt;3 -->
<g id="edge3" class="edge">
<title>2&#45;&gt;3</title>
<path fill="none" stroke="#ffffff" d="M42.2463,-188.19C42.2463,-172.6205 42.2463,-150.3051 42.2463,-134.7434"/>
</g>
<!-- 4 -->
<g id="node5" class="node">
<title>4</title>
<ellipse fill="none" stroke="#ffffff" cx="42.2463" cy="-26.8701" rx="42.4939" ry="18"/>
<text text-anchor="middle" x="42.2463" y="-23.1701" font-family="Times,serif" font-size="14.00" fill="#000000">depth : 0</text>
</g>
<!-- 3&#45;&gt;4 -->
<g id="edge4" class="edge">
<title>3&#45;&gt;4</title>
<path fill="none" stroke="#ffffff" d="M42.2463,-98.4499C42.2463,-82.8804 42.2463,-60.565 42.2463,-45.0033"/>
</g>
<!-- 1639708309.2918372 -->
<g id="node6" class="node">
<title>1639708309.2918372</title>
<ellipse fill="#ffffff" stroke="#000000" cx="735.2463" cy="-385.8305" rx="49.4949" ry="26.7407"/>
<text text-anchor="middle" x="735.2463" y="-389.6305" font-family="Times,serif" font-size="14.00" fill="#000000">71 ~ 31</text>
<text text-anchor="middle" x="735.2463" y="-374.6305" font-family="Times,serif" font-size="14.00" fill="#000000">childs: 10</text>
</g>
<!-- 1639708309.2910345 -->
<g id="node7" class="node">
<title>1639708309.2910345</title>
<ellipse fill="#ffffff" stroke="#000000" cx="628.2463" cy="-296.0904" rx="44.5955" ry="26.7407"/>
<text text-anchor="middle" x="628.2463" y="-299.8904" font-family="Times,serif" font-size="14.00" fill="#000000">71 ~ 88</text>
<text text-anchor="middle" x="628.2463" y="-284.8904" font-family="Times,serif" font-size="14.00" fill="#000000">childs: 7</text>
</g>
<!-- 1639708309.2918372&#45;&gt;1639708309.2910345 -->
<g id="edge5" class="edge">
<title>1639708309.2918372&#45;&gt;1639708309.2910345</title>
<path fill="none" stroke="#000000" d="M708.2456,-363.1853C694.3507,-351.5317 677.2654,-337.2024 662.4566,-324.7824"/>
<polygon fill="#000000" stroke="#000000" points="664.4096,-321.8523 654.4985,-318.1079 659.9113,-327.2157 664.4096,-321.8523"/>
</g>
<!-- 1639708309.2918308 -->
<g id="node8" class="node">
<title>1639708309.2918308</title>
<ellipse fill="#ffffff" stroke="#000000" cx="843.2463" cy="-296.0904" rx="45.9239" ry="26.7407"/>
<text text-anchor="middle" x="843.2463" y="-299.8904" font-family="Times,serif" font-size="14.00" fill="#000000">53 46 31</text>
<text text-anchor="middle" x="843.2463" y="-284.8904" font-family="Times,serif" font-size="14.00" fill="#000000">childs: 3</text>
</g>
<!-- 1639708309.2918372&#45;&gt;1639708309.2918308 -->
<g id="edge6" class="edge">
<title>1639708309.2918372&#45;&gt;1639708309.2918308</title>
<path fill="none" stroke="#000000" d="M762.4992,-363.1853C776.524,-351.5317 793.769,-337.2024 808.7162,-324.7824"/>
<polygon fill="#000000" stroke="#000000" points="811.2942,-327.1908 816.7487,-318.1079 806.8205,-321.8069 811.2942,-327.1908"/>
</g>
<!-- 1639708309.2906651 -->
<g id="node9" class="node">
<title>1639708309.2906651</title>
<ellipse fill="#ffffff" stroke="#000000" cx="413.2463" cy="-206.3503" rx="44.5955" ry="26.7407"/>
<text text-anchor="middle" x="413.2463" y="-210.1503" font-family="Times,serif" font-size="14.00" fill="#000000">71 ~ 28</text>
<text text-anchor="middle" x="413.2463" y="-195.1503" font-family="Times,serif" font-size="14.00" fill="#000000">childs: 4</text>
</g>
<!-- 1639708309.2910345&#45;&gt;1639708309.2906651 -->
<g id="edge7" class="edge">
<title>1639708309.2910345&#45;&gt;1639708309.2906651</title>
<path fill="none" stroke="#000000" d="M591.2864,-280.6635C554.872,-265.4643 499.1236,-242.1951 459.7254,-225.7505"/>
<polygon fill="#000000" stroke="#000000" points="460.6595,-222.3478 450.0829,-221.7258 457.9631,-228.8076 460.6595,-222.3478"/>
</g>
<!-- 1639708309.2910268 -->
<g id="node10" class="node">
<title>1639708309.2910268</title>
<ellipse fill="#ffffff" stroke="#000000" cx="628.2463" cy="-206.3503" rx="45.9239" ry="26.7407"/>
<text text-anchor="middle" x="628.2463" y="-210.1503" font-family="Times,serif" font-size="14.00" fill="#000000">34 79 88</text>
<text text-anchor="middle" x="628.2463" y="-195.1503" font-family="Times,serif" font-size="14.00" fill="#000000">childs: 3</text>
</g>
<!-- 1639708309.2910345&#45;&gt;1639708309.2910268 -->
<g id="edge8" class="edge">
<title>1639708309.2910345&#45;&gt;1639708309.2910268</title>
<path fill="none" stroke="#000000" d="M628.2463,-269.1654C628.2463,-261.0905 628.2463,-252.0872 628.2463,-243.4763"/>
<polygon fill="#000000" stroke="#000000" points="631.7463,-243.2562 628.2463,-233.2563 624.7463,-243.2563 631.7463,-243.2562"/>
</g>
<!-- 1639708309.291825 -->
<g id="node11" class="node">
<title>1639708309.291825</title>
<ellipse fill="#ffffff" stroke="#000000" cx="923.2463" cy="-206.3503" rx="45.9239" ry="26.7407"/>
<text text-anchor="middle" x="923.2463" y="-210.1503" font-family="Times,serif" font-size="14.00" fill="#000000">53 46 31</text>
<text text-anchor="middle" x="923.2463" y="-195.1503" font-family="Times,serif" font-size="14.00" fill="#000000">childs: 3</text>
</g>
<!-- 1639708309.2918308&#45;&gt;1639708309.291825 -->
<g id="edge9" class="edge">
<title>1639708309.2918308&#45;&gt;1639708309.291825</title>
<path fill="none" stroke="#000000" d="M864.6848,-272.0417C874.0108,-261.5802 885.0666,-249.1784 895.0461,-237.9839"/>
<polygon fill="#000000" stroke="#000000" points="897.7067,-240.259 901.7485,-230.4654 892.4815,-235.6009 897.7067,-240.259"/>
</g>
<!-- 1639708309.290073 -->
<g id="node12" class="node">
<title>1639708309.290073</title>
<ellipse fill="#ffffff" stroke="#000000" cx="254.2463" cy="-116.6102" rx="44.5955" ry="26.7407"/>
<text text-anchor="middle" x="254.2463" y="-120.4102" font-family="Times,serif" font-size="14.00" fill="#000000">71 8</text>
<text text-anchor="middle" x="254.2463" y="-105.4102" font-family="Times,serif" font-size="14.00" fill="#000000">childs: 2</text>
</g>
<!-- 1639708309.2906651&#45;&gt;1639708309.290073 -->
<g id="edge10" class="edge">
<title>1639708309.2906651&#45;&gt;1639708309.290073</title>
<path fill="none" stroke="#000000" d="M380.6865,-187.9735C356.2236,-174.1665 322.5222,-155.1453 296.0645,-140.2125"/>
<polygon fill="#000000" stroke="#000000" points="297.4642,-136.9836 287.0352,-135.1164 294.0236,-143.0797 297.4642,-136.9836"/>
</g>
<!-- 1639708309.2906573 -->
<g id="node13" class="node">
<title>1639708309.2906573</title>
<ellipse fill="#ffffff" stroke="#000000" cx="413.2463" cy="-116.6102" rx="44.5955" ry="26.7407"/>
<text text-anchor="middle" x="413.2463" y="-120.4102" font-family="Times,serif" font-size="14.00" fill="#000000">71 28</text>
<text text-anchor="middle" x="413.2463" y="-105.4102" font-family="Times,serif" font-size="14.00" fill="#000000">childs: 2</text>
</g>
<!-- 1639708309.2906651&#45;&gt;1639708309.2906573 -->
<g id="edge11" class="edge">
<title>1639708309.2906651&#45;&gt;1639708309.2906573</title>
<path fill="none" stroke="#000000" d="M413.2463,-179.4253C413.2463,-171.3504 413.2463,-162.3471 413.2463,-153.7362"/>
<polygon fill="#000000" stroke="#000000" points="416.7463,-153.5161 413.2463,-143.5162 409.7463,-153.5162 416.7463,-153.5161"/>
</g>
<!-- 1639708309.2910147 -->
<g id="node14" class="node">
<title>1639708309.2910147</title>
<ellipse fill="#ffffff" stroke="#000000" cx="575.2463" cy="-116.6102" rx="44.5955" ry="26.7407"/>
<text text-anchor="middle" x="575.2463" y="-120.4102" font-family="Times,serif" font-size="14.00" fill="#000000">34</text>
<text text-anchor="middle" x="575.2463" y="-105.4102" font-family="Times,serif" font-size="14.00" fill="#000000">childs: 1</text>
</g>
<!-- 1639708309.2910268&#45;&gt;1639708309.2910147 -->
<g id="edge12" class="edge">
<title>1639708309.2910268&#45;&gt;1639708309.2910147</title>
<path fill="none" stroke="#000000" d="M613.2003,-180.8744C607.7175,-171.5908 601.4246,-160.9356 595.5599,-151.0054"/>
<polygon fill="#000000" stroke="#000000" points="598.4288,-148.9803 590.3298,-142.1497 592.4014,-152.5401 598.4288,-148.9803"/>
</g>
<!-- 1639708309.291465 -->
<g id="node15" class="node">
<title>1639708309.291465</title>
<ellipse fill="#ffffff" stroke="#000000" cx="682.2463" cy="-116.6102" rx="44.5955" ry="26.7407"/>
<text text-anchor="middle" x="682.2463" y="-120.4102" font-family="Times,serif" font-size="14.00" fill="#000000">79 88</text>
<text text-anchor="middle" x="682.2463" y="-105.4102" font-family="Times,serif" font-size="14.00" fill="#000000">childs: 2</text>
</g>
<!-- 1639708309.2910268&#45;&gt;1639708309.291465 -->
<g id="edge13" class="edge">
<title>1639708309.2910268&#45;&gt;1639708309.291465</title>
<path fill="none" stroke="#000000" d="M643.576,-180.8744C649.1623,-171.5908 655.574,-160.9356 661.5494,-151.0054"/>
<polygon fill="#000000" stroke="#000000" points="664.7211,-152.5227 666.8781,-142.1497 658.7233,-148.9135 664.7211,-152.5227"/>
</g>
<!-- 1639708309.2918184 -->
<g id="node16" class="node">
<title>1639708309.2918184</title>
<ellipse fill="#ffffff" stroke="#000000" cx="923.2463" cy="-116.6102" rx="44.5955" ry="26.7407"/>
<text text-anchor="middle" x="923.2463" y="-120.4102" font-family="Times,serif" font-size="14.00" fill="#000000">53 46</text>
<text text-anchor="middle" x="923.2463" y="-105.4102" font-family="Times,serif" font-size="14.00" fill="#000000">childs: 2</text>
</g>
<!-- 1639708309.291825&#45;&gt;1639708309.2918184 -->
<g id="edge14" class="edge">
<title>1639708309.291825&#45;&gt;1639708309.2918184</title>
<path fill="none" stroke="#000000" d="M923.2463,-179.4253C923.2463,-171.3504 923.2463,-162.3471 923.2463,-153.7362"/>
<polygon fill="#000000" stroke="#000000" points="926.7463,-153.5161 923.2463,-143.5162 919.7463,-153.5162 926.7463,-153.5161"/>
</g>
<!-- 1639708309.2924452 -->
<g id="node17" class="node">
<title>1639708309.2924452</title>
<ellipse fill="#ffffff" stroke="#000000" cx="1083.2463" cy="-116.6102" rx="44.5955" ry="26.7407"/>
<text text-anchor="middle" x="1083.2463" y="-120.4102" font-family="Times,serif" font-size="14.00" fill="#000000">31</text>
<text text-anchor="middle" x="1083.2463" y="-105.4102" font-family="Times,serif" font-size="14.00" fill="#000000">childs: 1</text>
</g>
<!-- 1639708309.291825&#45;&gt;1639708309.2924452 -->
<g id="edge15" class="edge">
<title>1639708309.291825&#45;&gt;1639708309.2924452</title>
<path fill="none" stroke="#000000" d="M956.7875,-187.5378C981.4606,-173.6993 1015.1562,-154.8002 1041.5612,-139.9903"/>
<polygon fill="#000000" stroke="#000000" points="1043.5605,-142.8819 1050.5701,-134.9374 1040.1362,-136.7767 1043.5605,-142.8819"/>
</g>
<!-- 1639708309.290035 -->
<g id="node18" class="node">
<title>1639708309.290035</title>
<ellipse fill="#ffffff" stroke="#000000" cx="147.2463" cy="-26.8701" rx="44.5955" ry="26.7407"/>
<text text-anchor="middle" x="147.2463" y="-30.6701" font-family="Times,serif" font-size="14.00" fill="#000000">71</text>
<text text-anchor="middle" x="147.2463" y="-15.6701" font-family="Times,serif" font-size="14.00" fill="#000000">childs: 0</text>
</g>
<!-- 1639708309.290073&#45;&gt;1639708309.290035 -->
<g id="edge16" class="edge">
<title>1639708309.290073&#45;&gt;1639708309.290035</title>
<path fill="none" stroke="#000000" d="M228.0711,-94.6573C213.9513,-82.8151 196.3604,-68.0618 181.1982,-55.3453"/>
<polygon fill="#000000" stroke="#000000" points="183.4331,-52.6517 173.522,-48.9073 178.9349,-58.0151 183.4331,-52.6517"/>
</g>
<!-- 1639708309.2903502 -->
<g id="node19" class="node">
<title>1639708309.2903502</title>
<ellipse fill="#ffffff" stroke="#000000" cx="254.2463" cy="-26.8701" rx="44.5955" ry="26.7407"/>
<text text-anchor="middle" x="254.2463" y="-30.6701" font-family="Times,serif" font-size="14.00" fill="#000000">8</text>
<text text-anchor="middle" x="254.2463" y="-15.6701" font-family="Times,serif" font-size="14.00" fill="#000000">childs: 0</text>
</g>
<!-- 1639708309.290073&#45;&gt;1639708309.2903502 -->
<g id="edge17" class="edge">
<title>1639708309.290073&#45;&gt;1639708309.2903502</title>
<path fill="none" stroke="#000000" d="M254.2463,-89.6852C254.2463,-81.6102 254.2463,-72.607 254.2463,-63.9961"/>
<polygon fill="#000000" stroke="#000000" points="257.7463,-63.776 254.2463,-53.776 250.7463,-63.7761 257.7463,-63.776"/>
</g>
<!-- 1639708309.2906387 -->
<g id="node20" class="node">
<title>1639708309.2906387</title>
<ellipse fill="#ffffff" stroke="#000000" cx="361.2463" cy="-26.8701" rx="44.5955" ry="26.7407"/>
<text text-anchor="middle" x="361.2463" y="-30.6701" font-family="Times,serif" font-size="14.00" fill="#000000">71</text>
<text text-anchor="middle" x="361.2463" y="-15.6701" font-family="Times,serif" font-size="14.00" fill="#000000">childs: 0</text>
</g>
<!-- 1639708309.2906573&#45;&gt;1639708309.2906387 -->
<g id="edge18" class="edge">
<title>1639708309.2906573&#45;&gt;1639708309.2906387</title>
<path fill="none" stroke="#000000" d="M398.4842,-91.1343C393.1048,-81.8507 386.9307,-71.1955 381.1766,-61.2653"/>
<polygon fill="#000000" stroke="#000000" points="384.0872,-59.3072 376.0452,-52.4096 378.0305,-62.8168 384.0872,-59.3072"/>
</g>
<!-- 1639708309.290812 -->
<g id="node21" class="node">
<title>1639708309.290812</title>
<ellipse fill="#ffffff" stroke="#000000" cx="468.2463" cy="-26.8701" rx="44.5955" ry="26.7407"/>
<text text-anchor="middle" x="468.2463" y="-30.6701" font-family="Times,serif" font-size="14.00" fill="#000000">28</text>
<text text-anchor="middle" x="468.2463" y="-15.6701" font-family="Times,serif" font-size="14.00" fill="#000000">childs: 0</text>
</g>
<!-- 1639708309.2906573&#45;&gt;1639708309.290812 -->
<g id="edge19" class="edge">
<title>1639708309.2906573&#45;&gt;1639708309.290812</title>
<path fill="none" stroke="#000000" d="M428.8599,-91.1343C434.6569,-81.6758 441.3264,-70.7935 447.5096,-60.7048"/>
<polygon fill="#000000" stroke="#000000" points="450.5425,-62.4541 452.7839,-52.099 444.5742,-58.7962 450.5425,-62.4541"/>
</g>
<!-- 1639708309.2912626 -->
<g id="node22" class="node">
<title>1639708309.2912626</title>
<ellipse fill="#ffffff" stroke="#000000" cx="575.2463" cy="-26.8701" rx="44.5955" ry="26.7407"/>
<text text-anchor="middle" x="575.2463" y="-30.6701" font-family="Times,serif" font-size="14.00" fill="#000000">34</text>
<text text-anchor="middle" x="575.2463" y="-15.6701" font-family="Times,serif" font-size="14.00" fill="#000000">childs: 0</text>
</g>
<!-- 1639708309.2910147&#45;&gt;1639708309.2912626 -->
<g id="edge20" class="edge">
<title>1639708309.2910147&#45;&gt;1639708309.2912626</title>
<path fill="none" stroke="#000000" d="M575.2463,-89.6852C575.2463,-81.6102 575.2463,-72.607 575.2463,-63.9961"/>
<polygon fill="#000000" stroke="#000000" points="578.7463,-63.776 575.2463,-53.776 571.7463,-63.7761 578.7463,-63.776"/>
</g>
<!-- 1639708309.2914455 -->
<g id="node23" class="node">
<title>1639708309.2914455</title>
<ellipse fill="#ffffff" stroke="#000000" cx="682.2463" cy="-26.8701" rx="44.5955" ry="26.7407"/>
<text text-anchor="middle" x="682.2463" y="-30.6701" font-family="Times,serif" font-size="14.00" fill="#000000">79</text>
<text text-anchor="middle" x="682.2463" y="-15.6701" font-family="Times,serif" font-size="14.00" fill="#000000">childs: 0</text>
</g>
<!-- 1639708309.291465&#45;&gt;1639708309.2914455 -->
<g id="edge21" class="edge">
<title>1639708309.291465&#45;&gt;1639708309.2914455</title>
<path fill="none" stroke="#000000" d="M682.2463,-89.6852C682.2463,-81.6102 682.2463,-72.607 682.2463,-63.9961"/>
<polygon fill="#000000" stroke="#000000" points="685.7463,-63.776 682.2463,-53.776 678.7463,-63.7761 685.7463,-63.776"/>
</g>
<!-- 1639708309.2916307 -->
<g id="node24" class="node">
<title>1639708309.2916307</title>
<ellipse fill="#ffffff" stroke="#000000" cx="789.2463" cy="-26.8701" rx="44.5955" ry="26.7407"/>
<text text-anchor="middle" x="789.2463" y="-30.6701" font-family="Times,serif" font-size="14.00" fill="#000000">88</text>
<text text-anchor="middle" x="789.2463" y="-15.6701" font-family="Times,serif" font-size="14.00" fill="#000000">childs: 0</text>
</g>
<!-- 1639708309.291465&#45;&gt;1639708309.2916307 -->
<g id="edge22" class="edge">
<title>1639708309.291465&#45;&gt;1639708309.2916307</title>
<path fill="none" stroke="#000000" d="M708.4214,-94.6573C722.5412,-82.8151 740.1321,-68.0618 755.2943,-55.3453"/>
<polygon fill="#000000" stroke="#000000" points="757.5576,-58.0151 762.9705,-48.9073 753.0594,-52.6517 757.5576,-58.0151"/>
</g>
<!-- 1639708309.2918036 -->
<g id="node25" class="node">
<title>1639708309.2918036</title>
<ellipse fill="#ffffff" stroke="#000000" cx="896.2463" cy="-26.8701" rx="44.5955" ry="26.7407"/>
<text text-anchor="middle" x="896.2463" y="-30.6701" font-family="Times,serif" font-size="14.00" fill="#000000">53</text>
<text text-anchor="middle" x="896.2463" y="-15.6701" font-family="Times,serif" font-size="14.00" fill="#000000">childs: 0</text>
</g>
<!-- 1639708309.2918184&#45;&gt;1639708309.2918036 -->
<g id="edge23" class="edge">
<title>1639708309.2918184&#45;&gt;1639708309.2918036</title>
<path fill="none" stroke="#000000" d="M915.2914,-90.1706C912.7325,-81.6657 909.852,-72.0915 907.1206,-63.0132"/>
<polygon fill="#000000" stroke="#000000" points="910.4703,-61.9984 904.2376,-53.4308 903.7671,-64.0152 910.4703,-61.9984"/>
</g>
<!-- 1639708309.291989 -->
<g id="node26" class="node">
<title>1639708309.291989</title>
<ellipse fill="#ffffff" stroke="#000000" cx="1003.2463" cy="-26.8701" rx="44.5955" ry="26.7407"/>
<text text-anchor="middle" x="1003.2463" y="-30.6701" font-family="Times,serif" font-size="14.00" fill="#000000">46</text>
<text text-anchor="middle" x="1003.2463" y="-15.6701" font-family="Times,serif" font-size="14.00" fill="#000000">childs: 0</text>
</g>
<!-- 1639708309.2918184&#45;&gt;1639708309.291989 -->
<g id="edge24" class="edge">
<title>1639708309.2918184&#45;&gt;1639708309.291989</title>
<path fill="none" stroke="#000000" d="M944.6848,-92.5615C954.086,-82.0156 965.245,-69.498 975.2873,-58.233"/>
<polygon fill="#000000" stroke="#000000" points="977.9841,-60.4676 982.0259,-50.674 972.7589,-55.8095 977.9841,-60.4676"/>
</g>
<!-- 1639708309.2924206 -->
<g id="node27" class="node">
<title>1639708309.2924206</title>
<ellipse fill="#ffffff" stroke="#000000" cx="1110.2463" cy="-26.8701" rx="44.5955" ry="26.7407"/>
<text text-anchor="middle" x="1110.2463" y="-30.6701" font-family="Times,serif" font-size="14.00" fill="#000000">31</text>
<text text-anchor="middle" x="1110.2463" y="-15.6701" font-family="Times,serif" font-size="14.00" fill="#000000">childs: 0</text>
</g>
<!-- 1639708309.2924452&#45;&gt;1639708309.2924206 -->
<g id="edge25" class="edge">
<title>1639708309.2924452&#45;&gt;1639708309.2924206</title>
<path fill="none" stroke="#000000" d="M1091.2011,-90.1706C1093.76,-81.6657 1096.6405,-72.0915 1099.3719,-63.0132"/>
<polygon fill="#000000" stroke="#000000" points="1102.7254,-64.0152 1102.255,-53.4308 1096.0222,-61.9984 1102.7254,-64.0152"/>
</g>
</g>
</svg>
