<?xml version="1.0" encoding="UTF-8" standalone="no"?>
<!DOCTYPE svg PUBLIC "-//W3C//DTD SVG 1.1//EN"
 "http://www.w3.org/Graphics/SVG/1.1/DTD/svg11.dtd">
<!-- Generated by graphviz version 2.40.1 (20161225.0304)
 -->
<!-- Title: MerkleTree Pages: 1 -->
<svg width="350pt" height="352pt"
 viewBox="0.00 0.00 350.33 352.22" xmlns="http://www.w3.org/2000/svg" xmlns:xlink="http://www.w3.org/1999/xlink">
<g id="graph0" class="graph" transform="scale(1 1) rotate(0) translate(4 348.2203)">
<title>MerkleTree</title>
<polygon fill="#ffffff" stroke="transparent" points="-4,4 -4,-348.2203 346.3295,-348.2203 346.3295,4 -4,4"/>
<text text-anchor="middle" x="171.1648" y="-7.8" font-family="Times,serif" font-size="14.00" fill="#000000">Merkle tree is complete</text>
<!-- 0 -->
<g id="node1" class="node">
<title>0</title>
<ellipse fill="none" stroke="#ffffff" cx="42.2463" cy="-326.2203" rx="42.4939" ry="18"/>
<text text-anchor="middle" x="42.2463" y="-322.5203" font-family="Times,serif" font-size="14.00" fill="#000000">depth : 3</text>
</g>
<!-- 1 -->
<g id="node2" class="node">
<title>1</title>
<ellipse fill="none" stroke="#ffffff" cx="42.2463" cy="-245.3503" rx="42.4939" ry="18"/>
<text text-anchor="middle" x="42.2463" y="-241.6503" font-family="Times,serif" font-size="14.00" fill="#000000">depth : 2</text>
</g>
<!-- 0&#45;&gt;1 -->
<g id="edge1" class="edge">
<title>0&#45;&gt;1</title>
<path fill="none" stroke="#ffffff" d="M42.2463,-307.8697C42.2463,-294.6348 42.2463,-276.8465 42.2463,-263.6283"/>
</g>
<!-- 2 -->
<g id="node3" class="node">
<title>2</title>
<ellipse fill="none" stroke="#ffffff" cx="42.2463" cy="-155.6102" rx="42.4939" ry="18"/>
<text text-anchor="middle" x="42.2463" y="-151.9102" font-family="Times,serif" font-size="14.00" fill="#000000">depth : 1</text>
</g>
<!-- 1&#45;&gt;2 -->
<g id="edge2" class="edge">
<title>1&#45;&gt;2</title>
<path fill="none" stroke="#ffffff" d="M42.2463,-227.19C42.2463,-211.6205 42.2463,-189.3051 42.2463,-173.7434"/>
</g>
<!-- 3 -->
<g id="node4" class="node">
<title>3</title>
<ellipse fill="none" stroke="#ffffff" cx="42.2463" cy="-65.8701" rx="42.4939" ry="18"/>
<text text-anchor="middle" x="42.2463" y="-62.1701" font-family="Times,serif" font-size="14.00" fill="#000000">depth : 0</text>
</g>
<!-- 2&#45;&gt;3 -->
<g id="edge3" class="edge">
<title>2&#45;&gt;3</title>
<path fill="none" stroke="#ffffff" d="M42.2463,-137.4499C42.2463,-121.8804 42.2463,-99.565 42.2463,-84.0033"/>
</g>
<!-- 1637203672.7373834 -->
<g id="node5" class="node">
<title>1637203672.7373834</title>
<ellipse fill="#c8e6c9" stroke="#000000" cx="222.2463" cy="-326.2203" rx="36.2938" ry="18"/>
<text text-anchor="middle" x="222.2463" y="-322.5203" font-family="Times,serif" font-size="14.00" fill="#000000">Root ✓</text>
</g>
<!-- 1637203672.7339609 -->
<g id="node6" class="node">
<title>1637203672.7339609</title>
<ellipse fill="#ffa500" stroke="#000000" cx="176.2463" cy="-245.3503" rx="48.1667" ry="26.7407"/>
<text text-anchor="middle" x="176.2463" y="-249.1503" font-family="Times,serif" font-size="14.00" fill="#000000">1</text>
<text text-anchor="middle" x="176.2463" y="-234.1503" font-family="Times,serif" font-size="14.00" fill="#000000">Ref Hash</text>
</g>
<!-- 1637203672.7373834&#45;&gt;1637203672.7339609 -->
<g id="edge4" class="edge">
<title>1637203672.7373834&#45;&gt;1637203672.7339609</title>
<path fill="none" stroke="#000000" d="M212.2649,-308.6727C207.4905,-300.2791 201.6001,-289.9234 195.9759,-280.0359"/>
<polygon fill="#000000" stroke="#000000" points="198.912,-278.1187 190.9254,-271.1569 192.8275,-281.5797 198.912,-278.1187"/>
</g>
<!-- 1637203672.737196 -->
<g id="node7" class="node">
<title>1637203672.737196</title>
<ellipse fill="#c8e6c9" stroke="#000000" cx="269.2463" cy="-245.3503" rx="27" ry="18"/>
<text text-anchor="middle" x="269.2463" y="-241.6503" font-family="Times,serif" font-size="14.00" fill="#000000">✓</text>
</g>
<!-- 1637203672.7373834&#45;&gt;1637203672.737196 -->
<g id="edge5" class="edge">
<title>1637203672.7373834&#45;&gt;1637203672.737196</title>
<path fill="none" stroke="#000000" d="M232.4446,-308.6727C238.8128,-297.7154 247.1241,-283.4145 254.2366,-271.1764"/>
<polygon fill="#000000" stroke="#000000" points="257.3911,-272.7141 259.3899,-262.3095 251.339,-269.1967 257.3911,-272.7141"/>
</g>
<!-- 1637203672.7371638 -->
<g id="node8" class="node">
<title>1637203672.7371638</title>
<ellipse fill="#c8e6c9" stroke="#000000" cx="201.2463" cy="-155.6102" rx="27" ry="18"/>
<text text-anchor="middle" x="201.2463" y="-151.9102" font-family="Times,serif" font-size="14.00" fill="#000000">✓</text>
</g>
<!-- 1637203672.737196&#45;&gt;1637203672.7371638 -->
<g id="edge6" class="edge">
<title>1637203672.737196&#45;&gt;1637203672.7371638</title>
<path fill="none" stroke="#000000" d="M256.774,-228.8906C246.4217,-215.2286 231.5461,-195.5971 219.7967,-180.0913"/>
<polygon fill="#000000" stroke="#000000" points="222.4685,-177.822 213.6394,-171.9655 216.8893,-182.0497 222.4685,-177.822"/>
</g>
<!-- 1637203672.7385921 -->
<g id="node9" class="node">
<title>1637203672.7385921</title>
<ellipse fill="#ffa500" stroke="#000000" cx="294.2463" cy="-155.6102" rx="48.1667" ry="26.7407"/>
<text text-anchor="middle" x="294.2463" y="-159.4102" font-family="Times,serif" font-size="14.00" fill="#000000">2</text>
<text text-anchor="middle" x="294.2463" y="-144.4102" font-family="Times,serif" font-size="14.00" fill="#000000">Ref Hash</text>
</g>
<!-- 1637203672.737196&#45;&gt;1637203672.7385921 -->
<g id="edge7" class="edge">
<title>1637203672.737196&#45;&gt;1637203672.7385921</title>
<path fill="none" stroke="#000000" d="M274.1854,-227.6205C276.987,-217.5641 280.6001,-204.5943 283.9865,-192.4385"/>
<polygon fill="#000000" stroke="#000000" points="287.4429,-193.0734 286.755,-182.501 280.6996,-191.1949 287.4429,-193.0734"/>
</g>
<!-- 1637203672.7370207 -->
<g id="node10" class="node">
<title>1637203672.7370207</title>
<ellipse fill="#ffa500" stroke="#000000" cx="150.2463" cy="-65.8701" rx="48.1667" ry="26.7407"/>
<text text-anchor="middle" x="150.2463" y="-69.6701" font-family="Times,serif" font-size="14.00" fill="#000000">3</text>
<text text-anchor="middle" x="150.2463" y="-54.6701" font-family="Times,serif" font-size="14.00" fill="#000000">Ref Hash</text>
</g>
<!-- 1637203672.7371638&#45;&gt;1637203672.7370207 -->
<g id="edge8" class="edge">
<title>1637203672.7371638&#45;&gt;1637203672.7370207</title>
<path fill="none" stroke="#000000" d="M191.6535,-138.7307C185.5112,-127.9225 177.3185,-113.5067 169.8423,-100.3515"/>
<polygon fill="#000000" stroke="#000000" points="172.7988,-98.47 164.8149,-91.5053 166.713,-101.9287 172.7988,-98.47"/>
</g>
<!-- 1637203672.7377987 -->
<g id="node11" class="node">
<title>1637203672.7377987</title>
<ellipse fill="#bbdefb" stroke="#000000" cx="253.2463" cy="-65.8701" rx="36.5405" ry="26.7407"/>
<text text-anchor="middle" x="253.2463" y="-69.6701" font-family="Times,serif" font-size="14.00" fill="#000000">4</text>
<text text-anchor="middle" x="253.2463" y="-54.6701" font-family="Times,serif" font-size="14.00" fill="#000000">Target</text>
</g>
<!-- 1637203672.7371638&#45;&gt;1637203672.7377987 -->
<g id="edge9" class="edge">
<title>1637203672.7371638&#45;&gt;1637203672.7377987</title>
<path fill="none" stroke="#000000" d="M211.0271,-138.7307C217.3855,-127.7575 225.8987,-113.0657 233.6146,-99.7499"/>
<polygon fill="#000000" stroke="#000000" points="236.8073,-101.2208 238.7927,-90.8137 230.7506,-97.7113 236.8073,-101.2208"/>
</g>
</g>
</svg>
